<?xml version="1.0" encoding="utf-8"?>
<!-- Generator: Adobe Illustrator 28.0.0, SVG Export Plug-In . SVG Version: 6.00 Build 0)  -->
<svg version="1.1" id="Слой_1" xmlns="http://www.w3.org/2000/svg" xmlns:xlink="http://www.w3.org/1999/xlink" x="0px" y="0px"
	 viewBox="0 0 1000 334.8959351" enable-background="new 0 0 1000 334.8959351" xml:space="preserve">
<g id="layer1" transform="translate(128.24732,-81.330339)">
	<path id="Shape" fill="#171D27" d="M-79.3520432,258.9083252c-9.6835785,0-18.2078247-2.1141357-25.5728226-6.3423462
		c-7.3650055-4.3641052-13.0933228-10.3653564-17.1849594-18.00383c-4.0916519-7.773056-6.1374893-16.7063751-6.1374893-26.7999878
		c0-12.138443,3.0005493-22.7769318,9.0016708-31.9141083c6.137413-9.138443,14.7980652-16.1628113,25.9819183-21.0730591
		c11.3202667-4.9089813,24.5499802-7.3641052,39.6890984-7.3641052c6.9557762,0,12.6158981,0.4769135,16.9803925,1.4320526
		v-4.2961426c0-10.3659058-1.9094849-18.0719376-5.7283401-23.1182327c-3.8188515-5.1828156-9.615387-7.774231-17.3896179-7.774231
		c-12.5476799,0-20.5946159,6.6148758-24.1406364,19.8444748c-1.091156,3.818985-3.3415222,5.455658-6.7512589,4.9100189
		l-27.8231964-4.9100189c-2.0459137-0.4090881-3.477951-1.295639-4.2962952-2.6595001
		c-0.6819153-1.3639526-0.7501297-3.2051163-0.2044525-5.5237122c3.5460892-13.9116669,11.0475006-24.686409,22.5040436-32.3240967
		c11.5930862-7.7740936,26.1184692-11.6611404,43.5761681-11.6611404c20.7310257,0,36.4838486,5.5919266,47.2585907,16.7757645
		c10.9112864,11.1838379,16.3664036,27.4821777,16.3664036,48.895752v102.9051666
		c0,1.4999847-0.5448723,2.7948761-1.6358995,3.8858795c-0.9551344,0.9551239-2.1833367,1.4320374-3.6833243,1.4320374h-26.5955086
		c-3.2733307,0-5.319109-1.7730713-6.1374321-5.3179169l-4.0916729-19.2307739h-1.6366653
		c-3.6824455,9.0012665-9.2061577,15.9564056-16.5711594,20.8666534
		c-7.2285957,4.9102325-15.8210335,7.3654022-25.7774315,7.3654022H-79.3520432z M-83.6483383,202.8519135
		c0,7.2294922,1.8412933,13.0256348,5.5237198,17.3897552c3.818985,4.2282104,8.9334488,6.3423157,15.3437195,6.3423157
		c8.4561462,0,14.9346123-3.7512817,19.435379-11.2525635c4.5007668-7.6371765,6.7512856-18.5487061,6.7512856-32.7320404
		v-10.8435974c-3.8189697-0.6820679-7.4332008-1.0231018-10.8429565-1.0231018
		c-11.1838379,0-20.049099,2.9320679-26.5957603,8.7974548c-6.4102707,5.7281952-9.6154022,13.5025635-9.6154022,23.3218079
		L-83.6483383,202.8519135z M32.1449928,90.3318939c0-1.5002594,0.4782104-2.7276917,1.4320526-3.6824493
		c1.0910263-1.091156,2.3871765-1.6366653,3.8871841-1.6366653h27.0051231c1.5,0,2.7282104,0.4773102,3.6820526,1.4320602
		c1.0923157,0.9547348,1.7730789,2.2503891,2.0461578,3.8870544l4.0923004,20.0490952h1.6359024
		c3.6833344-9.4107666,8.9333267-16.5711594,15.7538376-21.4811554c6.9551239-5.0464096,15.1384659-7.5694962,24.5487213-7.5694962
		c10.0935898,0,18.7538376,2.6594772,25.982048,7.9787216c7.365387,5.3191071,13.0256348,12.8887177,16.9807587,22.7085953
		h1.6371918c6.0012817-10.3655167,12.7525635-18.0714188,20.2538452-23.1178207
		c7.5012817-5.0464096,15.8884583-7.5694962,25.1628113-7.5694962c10.0935974,0,18.8217926,2.7276917,26.1871796,8.1832123
		c7.5012817,5.4556351,13.2294922,13.2297516,17.1846161,23.3224411
		c3.9551392,10.0928116,5.9333344,22.0268021,5.9333344,35.8017807v101.2692719
		c0,1.4999847-0.5461578,2.7948761-1.6371765,3.8858795c-0.9551392,0.9551239-2.1820526,1.4320374-3.6820526,1.4320374h-32.7333069
		c-1.5,0-2.7961426-0.4769135-3.8871765-1.4320374c-0.9551239-1.0910492-1.4320526-2.3858948-1.4320526-3.8858795v-97.99617
		c0-9.9564056-1.9089661-17.5937195-5.7282104-22.9128265c-3.8192291-5.3190918-9.3423004-7.9787064-16.5717926-7.9787064
		c-7.9102478,0-13.9794769,3.1369171-18.2076874,9.4107742c-4.0910339,6.2738495-6.1371765,15.3435822-6.1371765,27.2089844
		v92.2679443c0,1.4999847-0.5461578,2.7948761-1.6371765,3.8858795c-0.9538574,0.9551239-2.1820526,1.4320374-3.6820526,1.4320374
		h-32.7333374c-1.5000076,0-2.7961578-0.4769135-3.8871765-1.4320374c-0.9551315-1.0910492-1.4320526-2.3858948-1.4320526-3.8858795
		v-97.99617c0-9.9564056-1.9089737-17.5937195-5.7282028-22.9128265c-3.8192368-5.3190918-9.342308-7.9787064-16.5705185-7.9787064
		c-7.9115372,0-13.9807663,3.1369171-18.2089767,9.4107742c-4.0910187,6.2738495-6.1371841,15.3435822-6.1371841,27.2089844
		v92.2679443c0,1.4999847-0.5448685,2.7948761-1.6358948,3.8858795c-0.9551239,0.9551239-2.1833344,1.4320374-3.6833344,1.4320374
		H37.4642372c-1.4999962,0-2.796154-0.4769135-3.8871841-1.4320374c-0.9538498-1.0910492-1.4320602-2.3858948-1.4320602-3.8858795
		V90.3318939z M276.8257751,207.7621613c0-12.138443,3.0012512-22.7769318,9.0025635-31.9141083
		c6.1371765-9.138443,14.7974243-16.1628113,25.9820557-21.0730591c11.3192139-4.9089813,24.5499878-7.3641052,39.688446-7.3641052
		c6.9564209,0,12.6166687,0.4769135,16.9807739,1.4320526v-4.2961426c0-10.3659058-1.9102478-18.0719376-5.7281799-23.1182327
		c-3.8192444-5.1828156-9.615387-7.774231-17.3897705-7.774231c-12.5474243,0-20.5948486,6.6148758-24.1410217,19.8444748
		c-1.0910034,3.818985-3.3410339,5.455658-6.7512817,4.9100189l-27.8230591-4.9100189
		c-2.0461731-0.4090881-3.4782104-1.295639-4.2961731-2.6595001c-0.6820374-1.3639526-0.75-3.2051163-0.2051392-5.5237122
		c3.5461731-13.9116669,11.0474548-24.686409,22.505127-32.3240967
		c11.5923157-7.7740936,26.1179504-11.6611404,43.5756531-11.6611404c20.7307739,0,36.4833374,5.5919266,47.2589722,16.7757645
		c10.9102478,11.1838379,16.3666687,27.4821777,16.3666687,48.895752v102.9051666
		c0,1.4999847-0.5461426,2.7948761-1.6371765,3.8858795c-0.9551392,0.9551239-2.1820679,1.4320374-3.6820374,1.4320374h-26.5961609
		c-3.2730713,0-5.3192139-1.7730713-6.1371765-5.3179169l-4.0923157-19.2307739h-1.6358948
		c-3.6833191,9.0012665-9.2064209,15.9564056-16.5718079,20.8666534
		c-7.2282104,4.9102325-15.8204956,7.3654022-25.7769165,7.3654022s-18.2077026-2.1141357-25.5730896-6.3423462
		c-7.365387-4.3641052-13.0935669-10.3653564-17.1846008-18.00383
		C278.8719177,226.789093,276.8257751,217.8557739,276.8257751,207.7621613L276.8257751,207.7621613z M321.4257507,202.8519135
		c0,7.2294922,1.8410339,13.0256348,5.5230713,17.3897552c3.8192444,4.2282104,8.9333496,6.3423157,15.3435974,6.3423157
		c8.4564209,0,14.9346313-3.7512817,19.4359131-11.2525635c4.5-7.6371765,6.7512817-18.5487061,6.7512817-32.7320404v-10.8435974
		c-3.8192444-0.6820679-7.4333496-1.0231018-10.8435974-1.0231018c-11.1833191,0-20.0487366,2.9320679-26.5948792,8.7974548
		c-6.4102478,5.7281952-9.615387,13.5025635-9.615387,23.3218079V202.8519135z M433.9462585,225.1519012
		c0-3.0000153,0.8179626-5.5923004,2.4551392-7.7743225l69.9667053-97.9949036h-65.4666748
		c-1.5,0-2.7961426-0.4773102-3.8871765-1.4320602c-0.9538574-1.0911636-1.4320679-2.386795-1.4320679-3.8870468V90.3318939
		c0-1.5002594,0.4782104-2.7276917,1.4320679-3.6824493c1.0910339-1.091156,2.3871765-1.6366653,3.8871765-1.6366653h107.6102295
		c1.5012817,0,2.7282104,0.5455093,3.6833496,1.6366653c1.0910645,0.9547577,1.6358643,2.1821899,1.6358643,3.6824493V115.08638
		c0,3.0006409-0.8179321,5.5919266-2.4551392,7.774231l-63.4205017,87.1515503
		c3.8192444-0.6807709,7.7064209-1.0218048,11.6615601-1.0218048c9.8204956,0,18.8217468,0.88591,27.0050964,2.6589813
		c8.3192749,1.6371765,16.9115601,4.3641052,25.7769165,8.1833038c3.137207,1.36409,4.7051392,3.6820374,4.7051392,6.9564514
		v23.526886c0,2.1820679-0.6807861,3.6820526-2.0448608,4.5000153c-1.3640747,0.6820526-3.0692139,0.6141052-5.1153564-0.2039642
		c-10.2282104-3.8191986-19.2987671-6.4782104-27.2089844-7.9794617c-7.774353-1.6358795-16.2987671-2.4551392-25.5730896-2.4551392
		c-9.2743835,0-18.13974,0.8192139-27.005127,2.4551392c-8.7282104,1.6371765-18.4115295,4.2961578-29.0499878,7.9794617
		c-2.0461731,0.6820679-3.7512817,0.6820679-5.115387,0c-1.3628235-0.8192139-2.0448914-2.2512665-2.0448914-4.2961273V225.1519012z
		 M566.1065063,170.1185608c0-16.638443,3.2051392-31.7097168,9.6154175-45.2121506
		c6.4102783-13.6388474,15.2063599-24.2771835,26.3910522-31.9148712
		c11.3204956-7.7740936,23.8679199-11.6611404,37.6422729-11.6611404c13.7756348,0,26.4602661,3.8870468,37.6435547,11.6611404
		c11.3205566,7.6376877,20.1859741,18.2760239,26.5961914,31.9148712
		c6.5461426,13.502449,9.8204956,28.5737076,9.8204956,45.2121506c0,16.63974-3.274353,31.7794952-9.8204956,45.4179535
		c-6.4102783,13.5025787-15.2756348,24.1410217-26.5961914,31.91539
		c-11.1832886,7.6371765-23.7307129,11.4564209-37.6435547,11.4564209c-13.9115601,0-26.3217773-3.8192444-37.6422729-11.4564209
		c-11.1846313-7.7743683-19.9807739-18.4128113-26.3910522-31.91539
		C569.3116455,201.898056,566.1065063,186.7583008,566.1065063,170.1185608z M611.1141968,170.1185608
		c0,17.3218079,2.4551392,30.688446,7.3653564,40.0987396c4.9102783,9.274353,12.0012817,13.9115448,21.2756348,13.9115448
		c9.2756958,0,16.4359131-4.6371613,21.4820557-13.9115448c5.0462036-9.4102478,7.5692139-22.7769318,7.5692139-40.0987396
		c0-17.3204956-2.5230713-30.618576-7.5692139-39.8929291c-5.0461426-9.4108963-12.2064209-14.1162872-21.4820557-14.1162872
		c-9.274353,0-16.3653564,4.7053909-21.2756348,14.1162872
		C613.5693359,139.4999695,611.1141968,152.7980652,611.1141968,170.1185608z M735.9090576,90.3319092
		c0-1.5002518,0.4781494-2.7276917,1.4333496-3.6824417c1.0910034-1.0911636,2.3858643-1.6366653,3.8858643-1.6366653h27.005127
		c1.5,0,2.7282104,0.4773102,3.6832886,1.4320602c1.0910645,0.9547348,1.7731323,2.2503815,2.0449219,3.8870468
		l4.0922852,20.0490952h1.6359253c3.6832886-9.274353,9.0704956-16.4347458,16.1627808-21.4811554
		c7.2282104-5.046402,15.6846313-7.5694885,25.367981-7.5694885c10.3654175,0,19.298645,2.7276917,26.8000488,8.1832047
		c7.6384277,5.4556351,13.5025024,13.2297516,17.5948486,23.3224258c4.0910034,10.0928116,6.137207,22.0268021,6.137207,35.8017807
		v101.2692719c0,1.4999847-0.5462036,2.7948761-1.637146,3.8858795c-0.9538574,0.9551239-2.1820679,1.4320374-3.6820679,1.4320374
		h-32.7333374c-1.5,0-2.7961426-0.4769135-3.887146-1.4320374c-0.9537964-1.0910492-1.4320679-2.3858948-1.4320679-3.8858795
		v-97.99617c0-9.9564056-2.0461426-17.5937195-6.137146-22.9128265c-4.0923462-5.3190918-9.8884888-7.9787064-17.3897705-7.9787064
		c-8.3192139,0-14.661499,3.1369171-19.0256348,9.4107742c-4.3653564,6.2738495-6.5474243,15.3435822-6.5474243,27.2089844
		v92.2679443c0,1.4999847-0.5448608,2.7948761-1.6358643,3.8858795c-0.9551392,0.9551239-2.1820679,1.4320374-3.6833496,1.4320374
		h-32.7333374c-1.499939,0-2.7948608-0.4769135-3.8858643-1.4320374c-0.9551392-1.0910492-1.4333496-2.3858948-1.4333496-3.8858795
		L735.9090576,90.3319092z"/>
	<path id="Path" fill="#FF6201" d="M-14.4948626,278.7467651c-2.5914164,2.0461731-3.1370554,5.4551392-1.6366663,10.2295227
		c1.3638468,4.2282104,4.5689821,9.4781799,9.615387,15.752533c20.3214188,25.0961609,44.5303802,45.9627991,72.6265411,62.6025391
		s58.1705093,28.9141235,90.2217865,36.8243713c32.1871796,8.0474243,65.0564117,12.0705261,98.6076965,12.0705261
		c42.9628296,0,83.8794861-6.2730713,122.75-18.8217773c38.8705139-12.4115295,71.33078-29.8692322,97.382019-52.3730774
		c9.137207-8.0461426,13.7064209-14.4564209,13.7064209-19.2307739c0-1.7730713-0.7499695-3.5461426-2.25-5.3192139
		c-2.0461426-2.0448608-4.5012817-2.7269287-7.365387-2.0448608c-2.8641052,0.6807556-6.8871765,2.3858948-12.0705261,5.1140747
		c-24.9589539,13.0935974-55.3730469,23.5269165-91.2435608,31.3013
		c-35.7333374,7.9102783-73.0358887,11.865387-111.9064026,11.865387c-48.1448822,0-94.6538544-6.5461121-139.52565-19.63974
		c-44.8717957-13.0935974-84.6294785-33.5512695-119.2717896-61.3743591
		c-5.0461559-3.9551392-9.1384602-6.4794922-12.2749977-7.5705261c-3.0005116-1.0910339-5.4555192-0.8858948-7.3648686,0.6141052
		V278.7467651z"/>
	<path id="path6" fill="#FF6201" d="M440.0796204,288.987793c-2.8641052,2.7282104-3.6141052,5.5923157-2.25,8.5935974
		c0.9551392,2.1820679,2.7961731,3.4089661,5.5243835,3.6820374c2.7268982,0.4089966,6.6141052,0.1359863,11.6602173-0.8179321
		c8.1833496-1.7730713,16.7077332-3.0012512,25.5730896-3.6833191c8.865387-0.5448914,16.5718079-0.4089966,23.1179504,0.4089661
		c6.5474548,0.9551697,10.6384888,2.5923157,12.2756348,4.9102783c2.4551392,3.6833496,1.5679932,11.4564209-2.6602173,23.3230896
		c-4.0910339,11.865387-9.6833496,23.3897705-16.7756653,34.5743713c-2.7282104,4.5-4.3641052,8.0461426-4.9102478,10.6384888
		c-0.5448914,2.5910034,0.1372375,4.7730408,2.0461426,6.5461426c1.2269287,1.2269287,2.5910034,1.8410034,4.0910034,1.8410034
		c3.9564209,0,9.6846313-3.4782104,17.1859131-10.4333496c13.5025635-11.7294922,22.9807739-25.6409912,28.4371948-41.7345886
		c3-8.3205261,4.8410034-17.0487366,5.5230713-26.1871948c0.6820679-9.137146-0.3410645-15.6846313-3.0692139-19.63974
		c-2.5910034-3.8192139-8.3192749-6.9564209-17.1846313-9.4102478c-8.7282104-2.4551392-17.5256348-3.6833496-26.3910217-3.6833496
		c-17.3218079,0-33.7564087,4.0923157-49.3038635,12.2756348c-5.7281799,3.1371765-10.024353,6.0692444-12.88974,8.7961731
		V288.987793z"/>
</g>
</svg>
